<?xml version="1.0" encoding="UTF-8" standalone="no"?>
<svg
   data-name="Layer 1"
   viewBox="0 0 32 32"
   x="0px"
   y="0px"
   version="1.1"
   id="svg4"
   sodipodi:docname="nav-reset.svg"
   inkscape:version="1.4.2 (f4327f4, 2025-05-13)"
   width="32"
   height="32"
   xmlns:inkscape="http://www.inkscape.org/namespaces/inkscape"
   xmlns:sodipodi="http://sodipodi.sourceforge.net/DTD/sodipodi-0.dtd"
   xmlns="http://www.w3.org/2000/svg"
   xmlns:svg="http://www.w3.org/2000/svg">
  <defs
     id="defs4" />
  <sodipodi:namedview
     id="namedview4"
     pagecolor="#ffffff"
     bordercolor="#000000"
     borderopacity="0.25"
     inkscape:showpageshadow="2"
     inkscape:pageopacity="0.0"
     inkscape:pagecheckerboard="0"
     inkscape:deskcolor="#d1d1d1"
     inkscape:zoom="28.325"
     inkscape:cx="15.92233"
     inkscape:cy="16.187114"
     inkscape:window-width="3440"
     inkscape:window-height="1351"
     inkscape:window-x="-9"
     inkscape:window-y="-9"
     inkscape:window-maximized="1"
     inkscape:current-layer="svg4" />
  <title
     id="title1">Artboard 19</title>
  <path
     d="M 16,1 A 15,15 0 1 0 31,16 15,15 0 0 0 16,1 Z m 0,28 A 13,13 0 1 1 29,16 13,13 0 0 1 16,29 Z"
     id="path1" />
  <path
     d="M 16,5.1 A 10.9,10.9 0 1 0 26.9,16 10.91,10.91 0 0 0 16,5.1 Z m 1.09,19.72 v -1.34 a 1,1 0 0 0 -2,0 v 1.38 A 8.91,8.91 0 0 1 7.18,17.13 h 1.56 a 1,1 0 1 0 0,-2 h -1.6 a 8.91,8.91 0 0 1 7.95,-8 v 1.64 a 1,1 0 1 0 2,0 v -1.6 a 8.91,8.91 0 0 1 7.76,8 h -1.41 a 1,1 0 0 0 0,2 h 1.38 a 8.91,8.91 0 0 1 -7.73,7.66 z"
     id="path2" />
  <path
     d="M 19.26,13.34 V 13.28 L 19.2,13.17 19.13,13.07 19,13 18.9,12.92 18.8,12.85 18.69,12.79 h -0.06 l -7.2,-2.55 a 1,1 0 0 0 -1.28,1.28 l 2.56,7.2 v 0.06 l 0.06,0.11 0.07,0.11 H 13 l 0.1,0.08 0.1,0.07 0.12,0.06 h 0.06 l 7.2,2.55 a 1,1 0 0 0 1.28,-1.28 z m -2.77,0.75 -2.4,2.4 -1.32,-3.72 z m -1,3.82 2.4,-2.4 1.32,3.72 z"
     id="path3" />
  <text
     x="0"
     y="47"
     fill="#000000"
     font-size="5px"
     font-weight="bold"
     font-family="'Helvetica Neue', Helvetica, Arial-Unicode, Arial, Sans-serif"
     id="text3">Created by icon trip</text>
  <text
     x="0"
     y="52"
     fill="#000000"
     font-size="5px"
     font-weight="bold"
     font-family="'Helvetica Neue', Helvetica, Arial-Unicode, Arial, Sans-serif"
     id="text4">from the Noun Project</text>
  <path
     style="fill:#ff6a33;stroke-width:0.0353045"
     d="M 15.88082,2.5219274 C 12.691243,2.5483553 9.5160745,3.7476213 7.1284752,5.8662704 6.1759524,6.7422489 5.2843787,7.6979241 4.6082028,8.8073698 3.0526179,11.249705 2.3249092,14.201927 2.567505,17.087557 c 0.238265,3.03142 1.5443968,5.968719 3.6439457,8.16996 2.6383445,2.809612 6.5262693,4.398695 10.3788143,4.209135 3.426397,-0.143752 6.770522,-1.658445 9.132674,-4.145981 2.434554,-2.515787 3.826871,-6.013382 3.744782,-9.517282 C 29.448603,12.068071 27.74339,8.3950736 24.946558,5.9272692 22.488388,3.7244127 19.181401,2.4824285 15.88082,2.5219274 Z m 0.111912,3.0800419 c 1.071376,-0.025906 2.146517,0.1480725 3.155271,0.4676468 1.418253,0.4498667 2.759749,1.2140213 3.832952,2.2132888 0.792021,0.7392836 1.508665,1.5668628 2.040739,2.5146911 1.386082,2.364502 1.75279,5.293791 1.031442,7.924547 -0.294654,1.110973 -0.792036,2.178287 -1.421765,3.110036 -1.336701,1.995504 -3.399898,3.498793 -5.717812,4.165242 -0.976233,0.287984 -2.025215,0.433166 -3.055355,0.398497 -1.854191,0.0222 -3.689845,-0.554983 -5.27421,-1.500774 C 8.6715474,23.737654 7.1534962,21.945893 6.3289981,19.867436 5.6320719,18.167187 5.4624313,16.347314 5.6945518,14.530337 6.0023189,12.192216 7.1666503,9.986568 8.8976014,8.3885921 9.9526704,7.3655149 11.296715,6.5954383 12.658319,6.135812 13.741116,5.7765464 14.840061,5.5752118 15.992732,5.6019693 Z"
     id="path4" />
  <path
     style="fill:#ff6a33;fill-opacity:1;stroke-width:0.0353045"
     d="m 12.692865,12.338234 c -0.336621,0.0925 -0.458879,0.499626 -0.300364,0.792282 0.411804,1.170052 0.812134,2.345082 1.259515,3.501972 0.16066,0.334658 0.655036,0.365013 0.874874,0.07399 0.74431,-0.743367 1.514764,-1.463993 2.21958,-2.244943 0.273627,-0.30022 0.09401,-0.823186 -0.304057,-0.896186 -1.177612,-0.412637 -2.347721,-0.850204 -3.534412,-1.234909 -0.07171,0.0026 -0.143424,0.0052 -0.215136,0.0078 z"
     id="path8" />
  <path
     style="fill:#ff6a33;fill-opacity:1;stroke-width:0.0353045"
     d="m 17.755061,15.11343 c -0.368098,0.157028 -0.603756,0.512977 -0.903489,0.766178 -0.553917,0.567606 -1.152458,1.0977 -1.655467,1.711687 -0.240181,0.318038 -0.01081,0.792418 0.371365,0.850803 1.14443,0.399535 2.275096,0.842925 3.431868,1.204719 0.39556,0.117099 0.783848,-0.324943 0.61314,-0.702642 -0.41473,-1.189646 -0.83061,-2.379506 -1.273307,-3.558928 -0.115937,-0.213778 -0.345455,-0.32271 -0.58411,-0.271817 z"
     id="path9" />
</svg>
