<?xml version="1.0" encoding="UTF-8" standalone="no"?>
<svg
   version="1.1"
   viewBox="-5 -10 68.75 99.937408"
   id="svg3"
   sodipodi:docname="route_pin.svg"
   width="68.75"
   height="99.937408"
   inkscape:version="1.4.2 (f4327f4, 2025-05-13)"
   xmlns:inkscape="http://www.inkscape.org/namespaces/inkscape"
   xmlns:sodipodi="http://sodipodi.sourceforge.net/DTD/sodipodi-0.dtd"
   xmlns="http://www.w3.org/2000/svg"
   xmlns:svg="http://www.w3.org/2000/svg">
  <defs
     id="defs3" />
  <sodipodi:namedview
     id="namedview3"
     pagecolor="#ffffff"
     bordercolor="#000000"
     borderopacity="0.25"
     inkscape:showpageshadow="2"
     inkscape:pageopacity="0.0"
     inkscape:pagecheckerboard="0"
     inkscape:deskcolor="#d1d1d1"
     inkscape:zoom="8.3925926"
     inkscape:cx="54.45278"
     inkscape:cy="67.082966"
     inkscape:window-width="3440"
     inkscape:window-height="1351"
     inkscape:window-x="-9"
     inkscape:window-y="-9"
     inkscape:window-maximized="1"
     inkscape:current-layer="svg3" />
  <g
     id="g2"
     transform="translate(-20.625,-9.999)">
    <path
       d="M 63,76.312 C 72.75,63.406 84.375,45.687 84.375,34.374 84.375,15.405 68.969,-0.001 50,-0.001 c -18.969,0 -34.375,15.406 -34.375,34.375 0,13.625 16.969,36.719 27.094,49.25 3.75,4.6562 10.844,4.625 14.562,0 0.4375,-0.53125 0.90625,-1.125 1.375,-1.7188 9.3438,1.3125 13.219,4.4375 13.219,5.5938 0,1.8125 -7.6562,6.25 -21.875,6.25 -14.2188,0 -21.875,-4.4375 -21.875,-6.25 0,-0.28125 0.375,-1.0312 1.75,-1.9688 1.4375,-0.96875 1.8125,-2.9062 0.84375,-4.3438 -0.96875,-1.4376 -2.9062,-1.8125 -4.3438,-0.84375 -3.7188,2.5312 -4.5,5.2812 -4.5,7.125 0,16.594 56.25,16.656 56.25,0 0,-5.125 -5.6875,-9.2188 -15.125,-11.188 z M 47.562,79.7182 C 31.468,59.7802 21.843,42.8122 21.843,34.4062 c 0,-15.5 12.625,-28.125 28.125,-28.125 15.5,0 28.125,12.625 28.125,28.125 0,8.4375 -9.5938,25.375 -25.719,45.312 -1.1875,1.4688 -3.6562,1.4688 -4.8438,0 z"
       id="path1" />
    <path
       d="m 67.562,31.938 -15.625,-12.5 c -1.1562,-0.90625 -2.75,-0.90625 -3.9062,0 l -4.3125,3.4375 v -4.125 c 0,-1.7188 -1.4062,-3.125 -3.125,-3.125 -1.7188,0 -3.125,1.4062 -3.125,3.125 v 9.125 l -5.0625,4.0625 c -1.3438,1.0625 -1.5625,3.0312 -0.5,4.4062 1.0625,1.3438 3.0312,1.5625 4.4062,0.5 l 1.1875,-0.9375 v 11 c 0,1.7188 1.4062,3.125 3.125,3.125 h 18.75 c 1.7188,0 3.125,-1.4062 3.125,-3.125 v -11 l 1.1875,0.9375 c 0.5625,0.46875 1.25,0.6875 1.9375,0.6875 2.9375,0 4.25,-3.7188 1.9375,-5.5625 z M 56.25,31.2505 v 12.5 h -12.5 v -12.875 l 6.25,-5 c 7.3125,5.8438 6.25,4.8438 6.25,5.375 z"
       id="path2" />
  </g>
  <path
     style="fill:#ff6a33;fill-opacity:1;stroke-width:0.119153"
     d="M 29.038624,-4.102123 C 24.367529,-4.142273 19.745155,-2.862112 15.662008,-0.61820305 7.9643977,3.561678 2.3674767,11.447733 1.1267617,20.138922 c -0.504296,2.926762 -0.493701,5.96234 0.364519,8.823997 1.831273,6.514388 5.204196,12.46135 8.6968013,18.209939 4.924985,7.909211 10.461411,15.427871 16.320875,22.666479 0.898261,1.299669 2.676552,1.733555 4.115422,1.148473 1.494456,-0.614699 2.263123,-2.180741 3.303086,-3.322743 7.076522,-9.011472 13.858507,-18.340679 19.15208,-28.530917 1.962317,-3.941932 3.85871,-8.016943 4.606171,-12.387709 C 58.731807,17.771203 54.717688,8.577701 47.8945,2.765709 42.722255,-1.690586 35.89027,-4.300662 29.038624,-4.102123 Z M 20.02328,6.123133 c 1.416953,-0.03991 2.696257,1.233704 2.58366,2.666041 0.119678,1.352991 -0.02273,2.769202 0.211036,4.111633 0.559568,0.682708 1.235151,-0.360253 1.747273,-0.656303 1.355237,-0.977871 2.558907,-2.246331 4.094042,-2.934501 0.981275,-0.252448 2.015846,0.06723 2.718171,0.78799 5.324116,4.160403 10.633764,8.377296 15.79192,12.756551 1.121438,1.372188 0.216522,3.76745 -1.490339,4.124732 -1.014494,0.2174 -2.086223,-0.08431 -2.802183,-0.82476 -0.370652,-0.499279 -1.4603,-1.063841 -1.501976,-0.05446 0,3.846786 0,7.693572 0,11.540358 -0.41004,1.012608 -1.336259,2.029656 -2.534673,1.84307 -6.559803,0.09687 -13.112622,0.122497 -19.672176,-0.06043 -1.124539,-0.295786 -1.925575,-1.46898 -1.767719,-2.634793 -0.119568,-3.615165 0.04694,-7.239677 -0.132442,-10.85064 -0.539633,-0.769671 -1.243354,0.177657 -1.757734,0.481731 -1.298282,1.139784 -3.576897,0.665791 -4.23411,-0.963694 -0.567234,-1.176399 -0.04217,-2.683938 1.049748,-3.360413 1.552929,-1.35138 3.239981,-2.569037 4.767384,-3.931989 0.292123,-0.98308 0.06058,-2.105347 0.147637,-3.142685 0.07431,-2.353795 -0.08428,-4.72738 0.1695,-7.069188 0.327132,-1.128748 1.440525,-1.899622 2.612981,-1.828249 z"
     id="path3" />
  <path
     style="fill:#ff6a33;fill-opacity:1;stroke-width:0.119153"
     d="m 29.425638,15.602987 c -1.089338,0.347941 -1.876295,1.299289 -2.805547,1.933664 -1.265267,1.04187 -2.611749,2.014185 -3.821111,3.105098 -0.291316,0.944341 -0.04743,2.029165 -0.128141,3.02848 0.02726,3.390679 -0.05845,6.802043 0.03932,10.179813 0.341065,0.718497 1.362371,0.258976 2.006852,0.388938 3.64886,-0.02814 7.318348,0.0563 10.954307,-0.04225 0.718296,-0.34112 0.258679,-1.362376 0.388704,-2.006852 -0.02818,-3.801982 0.05633,-7.624614 -0.04225,-11.413695 -0.557618,-0.816317 -1.561509,-1.298541 -2.294672,-1.983049 -1.3522,-1.036483 -2.645358,-2.167727 -4.025647,-3.157568 -0.08696,-0.02995 -0.180268,-0.04085 -0.271817,-0.03258 z"
     id="path4" />
</svg>
