<?xml version="1.0" encoding="UTF-8" standalone="no"?>
<svg
   version="1.1"
   viewBox="-5 -10 58.175617 90.203055"
   id="svg2"
   sodipodi:docname="user_pin.svg"
   width="58.175617"
   height="90.203056"
   inkscape:version="1.4.2 (f4327f4, 2025-05-13)"
   xmlns:inkscape="http://www.inkscape.org/namespaces/inkscape"
   xmlns:sodipodi="http://sodipodi.sourceforge.net/DTD/sodipodi-0.dtd"
   xmlns="http://www.w3.org/2000/svg"
   xmlns:svg="http://www.w3.org/2000/svg">
  <defs
     id="defs2" />
  <sodipodi:namedview
     id="namedview2"
     pagecolor="#ffffff"
     bordercolor="#000000"
     borderopacity="0.25"
     inkscape:showpageshadow="2"
     inkscape:pageopacity="0.0"
     inkscape:pagecheckerboard="0"
     inkscape:deskcolor="#d1d1d1"
     inkscape:zoom="8.3925926"
     inkscape:cx="54.214475"
     inkscape:cy="66.606355"
     inkscape:window-width="3440"
     inkscape:window-height="1351"
     inkscape:window-x="-9"
     inkscape:window-y="-9"
     inkscape:window-maximized="1"
     inkscape:current-layer="svg2" />
  <path
     d="M 24.090029,-9.999999 C 8.107837,-10.003829 -5,1.33442 -5,18.414004 c 0,12.034546 4.88005904,20.228197 10.610223,30.731091 1.864378,3.416702 3.8278212,6.637975 5.79507,9.476336 -2.1388318,0.731594 -4.022242,1.67001 -5.596842,2.86513 -2.57345,1.953493 -4.369214,4.929624 -4.075629,8.19316 0.186818,2.064592 1.357242,3.726954 2.787001,4.994832 1.433566,1.267878 3.217813,2.252273 5.2804192,3.068108 4.1252108,1.635592 9.4017248,2.562526 15.1437978,2.451427 5.741681,-0.107255 10.869842,-1.210416 14.784625,-3.133218 1.95583,-0.96142 3.629592,-2.125878 4.887672,-3.642625 1.258079,-1.516747 2.077831,-3.527799 1.887216,-5.619161 v 0.0077 -0.0038 -0.0038 c -0.282126,-2.918767 -2.257027,-5.174767 -4.739025,-6.802711 v -0.0038 c -0.651947,-0.425165 -1.444985,-0.57838 -2.207446,-0.417507 -0.758693,0.160872 -1.425855,0.620515 -1.849054,1.271702 -0.880694,1.363582 -0.499445,3.183031 0.857826,4.0678 1.593632,1.045681 2.0588,1.980263 2.104477,2.439955 0.0305,0.340905 -0.02669,0.670308 -0.549007,1.298472 -0.522322,0.632007 -1.532631,1.428692 -2.96239,2.125878 -2.855616,1.401922 -7.289637,2.443778 -12.318244,2.539482 -5.028706,0.09576 -9.680085,-0.773729 -12.890187,-2.045373 C 10.345452,71.637241 9.106307,70.894204 8.389622,70.258303 7.672868,69.626296 7.569928,69.216447 7.562296,69.151337 c -0.08769,-0.992044 0.259248,-1.823274 1.7766342,-2.976229 1.2619828,-0.957586 3.3016518,-1.888383 5.9018448,-2.554877 1.258177,1.459383 2.50103,2.719515 3.76682,3.70391 1.494469,1.160604 3.042423,2.09901 5.082093,2.09901 2.035863,0 3.587624,-0.938436 5.078286,-2.09901 1.494469,-1.160604 2.950874,-2.681273 4.445441,-4.4968 2.985229,-3.623504 6.081041,-8.430654 8.948075,-13.681906 5.730263,-10.503024 10.614128,-22.388524 10.614128,-30.727299 0,-15.711688 -13.103934,-28.4140029 -29.086126,-28.4169446 z m 0,5.8796011 c 12.912635,0.00383 23.226151,10.1087049 23.226151,22.5413639 0,5.734084 -4.430215,17.887574 -9.889927,27.896261 -2.729807,5.006305 -5.695906,9.575863 -8.322744,12.763111 -1.311565,1.593428 -2.550612,2.838262 -3.515204,3.589085 -0.968389,0.754579 -1.650826,0.869492 -1.498373,0.869492 0.148685,0 -0.529945,-0.118737 -1.498374,-0.869492 C 21.623169,61.918679 20.387919,60.673766 19.076355,59.080338 16.449517,55.893482 13.479513,51.320002 10.749804,46.317227 5.286383,36.30854 0.859877,24.158286 0.859877,18.420966 0.863689,5.979482 11.184129,-4.1203979 24.093836,-4.1203979 Z m 0.179186,7.4615559 c -0.305003,-0.0038 -0.610007,0 -0.918827,0.01532 -9.882119,0.402191 -17.66386,8.763852 -17.255887,18.630847 0.41176,9.866504 8.856525,17.55418 18.738449,17.148223 9.882119,-0.406013 17.659956,-8.760026 17.248079,-18.623 C 41.684524,10.955806 33.750574,3.440809 24.268815,3.344713 Z m -0.05338,5.8872498 c 6.477497,0.05746 11.746301,5.0867112 12.016656,11.5256302 0.274504,6.645623 -4.883865,12.222816 -11.643819,12.498357 -6.759955,0.27554 -12.364117,-4.864514 -12.64228,-11.513864 -0.274503,-6.653369 4.880058,-12.2267382 11.64382,-12.4983562 0.209686,-0.0077 0.419382,-0.01149 0.629068,-0.01149 z"
     id="path1"
     style="stroke-width:0.978289" />
  <path
     style="fill:#ff6a33;stroke-width:0.116566"
     d="M 23.818054,-4.5336997 C 16.180279,-4.5005177 8.625516,-0.59866007 4.343746,5.789472 0.927514,10.814574 -0.45565396,17.309213 1.087378,23.242826 c 1.662319,6.911794 4.404773,13.518228 7.528211,19.882103 3.036758,5.938395 6.440993,11.745074 10.714953,16.878635 1.337806,1.490265 2.711112,3.11648 4.599036,3.898344 1.021051,0.0059 1.755802,-0.918016 2.513731,-1.492192 3.873284,-3.494608 6.649403,-7.992029 9.350792,-12.410919 4.536347,-7.766058 8.358065,-16.014773 10.780763,-24.701248 0.618376,-2.311869 1.212511,-4.671103 1.068555,-7.086241 C 47.790182,14.370456 46.615803,10.569742 44.744416,7.252139 40.989466,0.64346094 33.865646,-3.791204 26.341064,-4.4304544 25.502582,-4.5085654 24.660075,-4.5427327 23.818054,-4.5336997 Z M 24.068359,3.78893 c 5.803287,-0.06019 11.523579,3.023152 14.718205,7.908811 3.015819,4.460295 3.65043,10.4442 1.821269,15.523074 -1.891314,5.117729 -6.240895,9.256666 -11.487254,10.737883 C 24.700142,39.322596 19.788754,38.81175 15.727061,36.593567 10.363225,33.739584 6.589951,27.905932 6.574479,21.756649 6.195724,15.011636 10.347836,8.456628 16.37839,5.571161 18.763976,4.404341 21.433017,3.788197 24.068359,3.78893 Z"
     id="path2" />
  <path
     style="fill:#ff6a33;stroke-width:0.116566"
     d="m 23.789207,8.90925 c -4.516019,-0.171346 -8.775638,2.733873 -10.890792,6.641034 -2.333055,4.378672 -1.619843,10.135904 1.687859,13.824269 2.54231,2.933153 6.486828,4.584096 10.354293,4.231257 5.626374,-0.172001 10.707274,-4.804364 11.558802,-10.367061 0.258044,-2.421267 0.147907,-4.969309 -0.996225,-7.170454 -1.720192,-3.736224 -5.384061,-6.5330652 -9.448468,-7.104962 -0.753402,-0.05953 -1.510354,-0.05128 -2.265469,-0.05408 z"
     id="path3" />
</svg>
